<svg width="32" height="32" viewBox="0 0 32 32" fill="none" xmlns="http://www.w3.org/2000/svg">
<path d="M29.8794 15.6356C30.2133 15.3017 30.2133 14.7603 29.8794 14.4264L24.4377 8.98471C24.1038 8.65078 23.5624 8.65078 23.2284 8.98471C22.8945 9.31864 22.8945 9.86004 23.2284 10.194L28.0655 15.031L23.2284 19.868C22.8945 20.202 22.8945 20.7434 23.2284 21.0773C23.5624 21.4112 24.1038 21.4112 24.4377 21.0773L29.8794 15.6356ZM17.1479 15.8861H29.2747V14.1759H17.1479V15.8861Z" fill="black"/>
<path d="M14.6062 6.04516C15.0343 6.18632 15.4958 5.95371 15.637 5.5256C15.7782 5.0975 15.5455 4.63601 15.1174 4.49485L14.6062 6.04516ZM1.65651 1.77516L14.6062 6.04516L15.1174 4.49485L2.16771 0.224845L1.65651 1.77516Z" fill="black"/>
<path d="M1.91211 27.5073L14.9396 31" stroke="black" stroke-width="1.63242" stroke-linecap="round"/>
<path d="M14.8618 5.50317L14.9784 30.7668" stroke="black" stroke-width="1.63242" stroke-linecap="round"/>
<path d="M1.91211 1H21.3456" stroke="black" stroke-width="1.63242" stroke-linecap="round"/>
<path d="M21.3457 27.5073L21.3457 0.999989" stroke="black" stroke-width="1.63242" stroke-linecap="round"/>
<path d="M1.91211 27.5073L1.91211 0.999989" stroke="black" stroke-width="1.63242" stroke-linecap="round"/>
<path d="M15.2046 27.5073H21.3456" stroke="black" stroke-width="1.63242" stroke-linecap="round"/>
</svg>
