<svg width="106" height="106" viewBox="0 0 106 106" fill="none" xmlns="http://www.w3.org/2000/svg">
<path d="M0 99.0409L6 92.0409V105.041L0 99.0409Z" fill="#511717"/>
<path d="M97.9993 0.04356L105.42 6.03806L91.7046 6.11896L97.9993 0.04356Z" fill="#511717"/>
<path d="M98 0.0409088L0 99.0409V66.9186L65.508 0.0409088H98Z" fill="#BF2121"/>
<path d="M21.18 60.3086C21.0103 59.9223 20.806 59.6072 20.567 59.3635C20.1264 58.9141 19.7233 58.8687 19.3577 59.2271C19.1673 59.4138 19.078 59.6732 19.0898 60.0052C19.1018 60.3221 19.2123 60.5872 19.4214 60.8004C19.5708 60.9528 19.7662 61.0301 20.0075 61.0325C20.347 61.0283 20.8758 60.943 21.594 60.7766C22.3122 60.6102 22.8671 60.559 23.2587 60.6232C23.6505 60.6724 23.9994 60.8531 24.3056 61.1653C24.6043 61.47 24.8157 61.8379 24.9397 62.269C25.0713 62.6927 25.1008 63.1343 25.0284 63.5937C24.8754 64.5803 24.3419 65.5217 23.428 66.4178C22.9329 66.9032 22.368 67.2031 21.7333 67.3176C21.106 67.4396 20.6468 67.3521 20.3555 67.0551C20.0643 66.7581 19.9394 66.4174 19.9809 66.0331C20.03 65.6414 20.2145 65.2887 20.5344 64.975C20.8543 64.6614 21.173 64.4684 21.4905 64.3961C21.6379 64.7445 21.7938 65.0025 21.9581 65.1701C22.4509 65.6728 22.9106 65.715 23.3372 65.2968C23.52 65.1176 23.6163 64.9111 23.6261 64.6774C23.636 64.4436 23.5438 64.2278 23.3496 64.0297C22.9688 63.6413 22.2492 63.5626 21.1909 63.7935C20.3143 63.9659 19.7478 64.0433 19.4915 64.0257C19.0469 63.9836 18.6752 63.8102 18.3765 63.5056C18.0778 63.2009 17.8589 62.8329 17.7199 62.4016C17.5808 61.9703 17.5437 61.5211 17.6087 61.0541C17.7465 60.0825 18.299 59.1224 19.2663 58.174C19.7613 57.6886 20.2507 57.403 20.7343 57.3173C21.2255 57.224 21.6353 57.345 21.9639 57.6801C22.2925 58.0152 22.4473 58.3788 22.4284 58.7708C22.4171 59.1554 22.2286 59.5269 21.863 59.8854C21.6117 60.1318 21.384 60.2729 21.18 60.3086ZM29.9665 60.0067C28.2909 61.6497 26.6802 61.6828 25.1344 60.1062C24.0366 58.9866 23.4415 57.7626 23.3489 56.4341C23.2497 55.0227 23.7675 53.7606 24.9023 52.6479C25.7249 51.8413 26.5323 51.4231 27.3246 51.3932C28.1169 51.3633 28.9051 51.7482 29.6892 52.5479C30.8841 53.7665 31.5013 55.0511 31.5408 56.4017C31.588 57.7297 31.0633 58.9314 29.9665 60.0067ZM25.3908 54.7458C25.501 55.0411 25.6712 55.3822 25.9012 55.7691C26.1314 56.141 26.4397 56.6154 26.8263 57.1925C27.2128 57.7696 27.7011 58.3589 28.291 58.9606C28.4852 59.1587 28.6762 59.2925 28.8641 59.3623C29.0596 59.4245 29.2449 59.3698 29.4201 59.198C29.5953 59.0263 29.6951 58.8462 29.7196 58.6579C29.7517 58.4621 29.7126 58.2241 29.6022 57.9439C29.411 57.4442 29.0589 56.8109 28.546 56.0441C28.0256 55.2696 27.6311 54.7377 27.3624 54.4484C27.1013 54.1517 26.87 53.9005 26.6684 53.6948C26.4593 53.4816 26.257 53.3363 26.0617 53.2589C25.8663 53.1816 25.6811 53.2288 25.5059 53.4005C25.3383 53.5648 25.2497 53.7563 25.24 53.9749C25.2303 54.1936 25.2806 54.4505 25.3908 54.7458ZM36.1162 52.2964C36.4402 53.0991 36.2251 53.8702 35.4711 54.6095C35.0903 54.9829 34.6473 55.1558 34.1422 55.1282C33.7277 55.1015 33.3971 54.9624 33.1507 54.7111C32.5906 54.1399 31.8315 53.099 30.8733 51.5886L27.4059 46.3838L29.501 43.8814L34.0609 50.7488C34.4841 51.4393 34.7927 51.8836 34.9869 52.0816C35.4125 52.5158 35.789 52.5874 36.1162 52.2964ZM35.3677 42.3866C35.6419 42.1178 35.9154 41.9092 36.1885 41.7611C36.1662 41.7231 36.1216 41.6548 36.0547 41.5561L35.7646 41.1459C35.6457 40.9637 35.4859 40.7246 35.2851 40.4284L34.583 39.3466L36.6324 36.889L41.8613 44.7586C41.8985 44.8118 41.9544 44.8765 42.0291 44.9526L42.2084 45.1354C42.3726 45.303 42.5602 45.4104 42.7709 45.4578C42.9742 45.4975 43.1443 45.4501 43.2814 45.3157C43.4801 45.823 43.4218 46.3806 43.1066 46.9885C42.9914 47.191 42.8196 47.4043 42.5911 47.6283C42.3702 47.8449 42.0972 47.9931 41.7721 48.0728C41.4545 48.1602 41.1681 48.1348 40.913 47.9965C40.9853 48.314 40.9556 48.6494 40.8239 49.0026C40.6996 49.3634 40.4585 49.7193 40.1006 50.0703C39.7502 50.4138 39.3817 50.6855 38.9951 50.8854C38.616 51.0778 38.238 51.1645 37.8611 51.1458C37.1451 51.0859 36.354 50.6142 35.4877 49.7307C34.3675 48.5883 33.8028 47.3419 33.7934 45.9917C33.7766 44.6338 34.3014 43.4321 35.3677 42.3866ZM35.9598 43.1505C35.678 43.4268 35.6103 43.792 35.7567 44.246C35.9031 44.7 36.2659 45.3824 36.8453 46.2932C37.4323 47.1966 38.0581 47.9872 38.7228 48.6651C39.1783 49.1297 39.5432 49.2276 39.8173 48.9587C40.0611 48.7198 40.1472 48.3963 40.0758 47.9883C40.012 47.5728 39.8165 47.1296 39.4892 46.6587L36.8241 42.7064C36.5297 42.7261 36.2416 42.8742 35.9598 43.1505ZM49.9149 40.4474C48.2393 42.0903 46.6286 42.1235 45.0827 40.5469C43.9849 39.4273 43.3898 38.2033 43.2973 36.8748C43.198 35.4633 43.7158 34.2012 44.8507 33.0885C45.6732 32.282 46.4807 31.8638 47.273 31.8339C48.0653 31.8039 48.8535 32.1888 49.6376 32.9886C50.8324 34.2072 51.4496 35.4918 51.4891 36.8423C51.5364 38.1703 51.0116 39.372 49.9149 40.4474ZM45.3392 35.1865C45.4494 35.4817 45.6195 35.8228 45.8495 36.2098C46.0797 36.5816 46.3881 37.0561 46.7746 37.6332C47.1611 38.2102 47.6494 38.7996 48.2394 39.4013C48.4335 39.5993 48.6245 39.7332 48.8124 39.8029C49.0079 39.8652 49.1933 39.8105 49.3684 39.6387C49.5436 39.4669 49.6435 39.2869 49.6679 39.0986C49.7 38.9028 49.6609 38.6648 49.5505 38.3846C49.3593 37.8849 49.0073 37.2516 48.4944 36.4847C47.974 35.7102 47.5795 35.1784 47.3108 34.8891C47.0497 34.5923 46.8183 34.3411 46.6167 34.1355C46.4076 33.9222 46.2054 33.7769 46.01 33.6996C45.8147 33.6222 45.6294 33.6694 45.4542 33.8412C45.2867 34.0055 45.198 34.197 45.1883 34.4156C45.1786 34.6343 45.2289 34.8912 45.3392 35.1865ZM57.147 31.9671C57.2444 32.7977 56.8399 33.6574 55.9336 34.5461C55.4614 35.0091 54.9157 35.2677 54.2967 35.322C53.6702 35.3686 53.1553 35.1863 52.752 34.775C52.528 34.5465 52.3714 34.3639 52.2822 34.2273L49.0598 29.4096L51.155 26.9072L54.6449 32.1348C54.7787 32.3322 54.8941 32.4804 54.9912 32.5794C55.4244 33.0212 55.7742 33.1114 56.0408 32.85C56.3378 32.5587 56.3951 32.1067 56.2125 31.494C56.1541 31.2973 56.058 31.1002 55.9242 30.9028L52.6243 25.9147L54.6509 23.4794L58.1742 28.7639C58.2633 28.9006 58.3677 29.0298 58.4871 29.1517C58.6066 29.2735 58.7678 29.3694 58.9708 29.4393C59.1663 29.5016 59.3894 29.4397 59.6402 29.2536C59.7737 29.4812 59.8203 29.7343 59.7798 30.013C59.6986 30.6005 59.4752 31.0735 59.1096 31.432C58.7516 31.783 58.4025 31.9983 58.0623 32.0779C57.7221 32.1575 57.417 32.1206 57.147 31.9671ZM60.2647 27.6105C60.0631 27.4048 59.7616 26.9908 59.3605 26.3683L56.9415 22.69L56.2674 23.3509L55.9771 22.9634C56.6222 21.793 57.0579 20.4396 57.2843 18.9031L57.8326 18.3654L58.7794 19.8795L59.6706 19.0058L60.0718 19.6207L59.1921 20.4832L61.6339 24.1392C61.9979 24.7085 62.2583 25.0731 62.4152 25.233C62.7736 25.5986 63.1501 25.6627 63.5447 25.4252C63.7224 25.7588 63.7489 26.1362 63.6241 26.5574C63.4992 26.9786 63.2426 27.3796 62.8542 27.7604C62.4657 28.1413 62.0416 28.3181 61.5818 28.291C61.1219 28.2638 60.6829 28.037 60.2647 27.6105Z" fill="white"/>
</svg>
